#!OML:ASF F:\VICON\USERDATA\INSTALL\rory3\rory3.ASF
:FULLY-SPECIFIED
:DEGREES
1985
root -6.787 17.9118 15.1106 179.144 -7.30005 174.854
lowerback 12.5363 2.01971 2.40371
upperback 3.1032 2.68733 -0.105304
thorax -3.64291 1.19073 -1.86744
lowerneck -14.626 7.0459 -11.4978
upperneck 45.2267 7.62623 4.19102
head 19.0477 -0.216543 4.91969
rclavicle 6.24184e-014 -5.56597e-015
rhumerus -30.7283 -14.4764 -71.6037
rradius 37.135
rwrist -2.03663
rhand -18.301 9.89801
rfingers 7.12502
rthumb 7.97987 -19.9314
lclavicle 6.24184e-014 -5.56597e-015
lhumerus -40.1322 14.0649 75.6675
lradius 40.6801
lwrist -3.23097
lhand -22.2002 21.0879
lfingers 7.12502
lthumb 4.21546 51.026
rfemur -7.66013 0.599682 12.7513
rtibia 30.012
rfoot -17.4049 -1.77074
rtoes -3.86237
lfemur -7.50845 -3.40216 -15.5287
ltibia 33.4692
lfoot -11.3262 -0.938134
ltoes -14.8608
1986
root -6.848 17.9178 15.1168 179.135 -7.08574 174.655
lowerback 12.4924 2.04686 2.2079
upperback 3.12124 2.69175 -0.208152
thorax -3.60443 1.19459 -1.86313
lowerneck -14.5619 7.02272 -11.341
upperneck 45.1026 7.60293 4.03207
head 18.9772 -0.205892 4.80286
rclavicle -8.94531e-015 -3.4191e-014
rhumerus -30.6295 -14.1474 -71.8972
rradius 37.6866
rwrist -2.77843
rhand -18.1468 9.45316
rfingers 7.12502
rthumb 8.12861 -20.3705
lclavicle -8.94531e-015 -3.4191e-014
lhumerus -40.2108 14.3219 75.4179
lradius 40.1815
lwrist -3.21482
lhand -22.1195 21.1133
lfingers 7.12502
lthumb 4.29334 51.0497
rfemur -7.54192 0.681032 12.2889
rtibia 29.7627
rfoot -17.2334 -1.57018
rtoes -3.94385
lfemur -7.16728 -3.5777 -15.2375
ltibia 32.8863
lfoot -11.0202 -0.739452
ltoes -14.7728
1987
root -6.90808 17.9249 15.1313 179.078 -6.87119 174.754
lowerback 12.6287 2.03676 2.27613
upperback 3.13091 2.68583 -0.191728
thorax -3.6664 1.1881 -1.88852
lowerneck -14.7599 7.01669 -11.3221
upperneck 45.1498 7.64359 3.99307
head 19.0648 -0.201127 4.80045
rclavicle -4.37326e-015 1.59028e-014
rhumerus -30.5039 -13.8738 -72.1172
rradius 38.1798
rwrist -3.10866
rhand -18.1158 9.49515
rfingers 7.12502
rthumb 8.15853 -20.3273
lclavicle -4.37326e-015 1.59028e-014
lhumerus -40.1991 14.583 75.2557
lradius 39.6575
lwrist -2.8962
lhand -22.0989 21.1335
lfingers 7.12502
lthumb 4.31322 51.0696
rfemur -7.44477 0.910476 12.1959
rtibia 29.506
rfoot -16.9584 -1.62512
rtoes -4.732
lfemur -6.85198 -3.82592 -14.6111
ltibia 32.3238
lfoot -10.7104 -0.501889
ltoes -14.4894
1988
root -6.9717 17.9337 15.1432 179.059 -6.70017 174.678
lowerback 12.6869 2.002 2.20925
upperback 3.14645 2.62698 -0.230629
thorax -3.68599 1.15764 -1.88446
lowerneck -14.9658 7.03061 -11.545
upperneck 45.2287 7.67784 4.22992
head 19.1323 -0.203748 4.97369
rclavicle -2.06736e-014 -7.95139e-016
rhumerus -30.361 -13.5394 -72.3616
rradius 38.5733
rwrist -3.16508
rhand -18.0563 9.77611
rfingers 7.12502
rthumb 8.21599 -20.0441
lclavicle -2.06736e-014 -7.95139e-016
lhumerus -40.2034 15.0554 74.9775
lradius 39.0746
lwrist -2.84874
lhand -21.9088 21.0789
lfingers 7.12502
lthumb 4.49684 51.0111
rfemur -7.32505 0.976208 11.8793
rtibia 29.2335
rfoot -16.7515 -1.57036
rtoes -5.354
lfemur -6.57792 -4.0584 -14.199
ltibia 31.7894
lfoot -10.4209 -0.369387
ltoes -14.203
1989
root -7.038 17.9439 15.1496 179.097 -6.57267 174.398
lowerback 12.6162 1.96698 1.94737
upperback 3.15668 2.54054 -0.339432
thorax -3.64793 1.1172 -1.83471
lowerneck -15.0845 7.04451 -11.6774
upperneck 45.2478 7.72903 4.31801
head 19.1546 -0.199041 5.05391
rclavicle 1.0138e-014 -1.03368e-014
rhumerus -30.2783 -13.0474 -72.6375
rradius 39.028
rwrist -3.23901
rhand -18.0998 10.0313
rfingers 7.12502
rthumb 8.17403 -19.7906
lclavicle 1.0138e-014 -1.03368e-014
lhumerus -40.2579 15.4488 74.7173
lradius 38.5608
lwrist -2.87876
lhand -21.8887 21.0494
lfingers 7.12502
lthumb 4.51625 50.9812
rfemur -7.2041 0.953269 11.3054
rtibia 28.9476
rfoot -16.6767 -1.42121
rtoes -5.23174
lfemur -6.3385 -4.34557 -14.038
ltibia 31.3036
lfoot -10.0562 -0.36743
ltoes -13.4036
1990
root -7.1038 17.9511 15.1604 179.083 -6.43391 174.272
lowerback 12.6614 1.95522 1.84074
upperback 3.13497 2.50828 -0.437262
thorax -3.69715 1.10111 -1.87413
lowerneck -15.0912 7.02287 -11.5861
upperneck 45.1744 7.72282 4.19529
head 19.1279 -0.196233 4.97389
rclavicle 3.63776e-014 7.95139e-016
rhumerus -30.2707 -12.639 -72.9463
rradius 39.4807
rwrist -3.37277
rhand -18.239 10.2287
rfingers 7.12502
rthumb 8.03969 -19.5983
lclavicle 3.63776e-014 7.95139e-016
lhumerus -40.2702 15.6515 74.4633
lradius 38.0347
lwrist -2.90156
lhand -21.8927 20.8062
lfingers 7.12502
lthumb 4.51241 50.7381
rfemur -7.06892 1.05245 10.9259
rtibia 28.6416
rfoot -16.5447 -1.36474
rtoes -4.96163
lfemur -6.07195 -4.62057 -13.7037
ltibia 30.879
lfoot -9.59005 -0.365099
ltoes -12.7921
1991
root -7.1699 17.9542 15.1743 179.061 -6.32874 174.426
lowerback 12.6395 1.89701 1.96296
upperback 3.13663 2.44719 -0.413992
thorax -3.68167 1.07021 -1.90845
lowerneck -15.1014 7.01671 -11.575
upperneck 45.1311 7.72346 4.15986
head 19.1067 -0.196356 4.9523
rclavicle 7.95139e-015 5.56597e-015
rhumerus -30.1717 -12.2609 -73.2003
rradius 39.9035
rwrist -3.32579
rhand -17.7651 9.4119
rfingers 7.12502
rthumb 8.49704 -20.3971
lclavicle 7.95139e-015 5.56597e-015
lhumerus -40.2859 15.872 74.2788
lradius 37.5513
lwrist -2.93296
lhand -22.0321 20.7426
lfingers 7.12502
lthumb 4.37773 50.6773
rfemur -6.97223 1.23595 10.8785
rtibia 28.3366
rfoot -16.3539 -1.47986
rtoes -5.64102
lfemur -5.87784 -4.79983 -13.0368
ltibia 30.5037
lfoot -9.03445 -0.33988
ltoes -12.4797
1992
root -7.23652 17.9579 15.1919 179.081 -6.26297 174.822
lowerback 12.5905 1.83178 2.35823
upperback 3.08974 2.41911 -0.350964
thorax -3.69038 1.05554 -2.06014
lowerneck -15.0296 7.03637 -11.4525
upperneck 45.1425 7.69179 4.11233
head 19.1089 -0.202196 4.8976
rclavicle 3.53837e-014 2.06736e-014
rhumerus -30.2557 -12.1294 -73.3228
rradius 40.3453
rwrist -2.64105
rhand -17.2202 8.2763
rfingers 7.12502
rthumb 9.02283 -21.5107
lclavicle 3.53837e-014 2.06736e-014
lhumerus -40.324 16.0405 74.0681
lradius 37.1137
lwrist -3.19529
lhand -22.1125 20.5296
lfingers 7.12502
lthumb 4.30013 50.466
rfemur -6.97166 1.45124 11.1057
rtibia 28.0595
rfoot -16.1183 -1.70064
rtoes -6.36402
lfemur -5.8012 -4.96192 -12.0978
ltibia 30.1426
lfoot -8.42053 -0.293675
ltoes -11.8419
1993
root -7.30805 17.9611 15.213 179.082 -6.13214 174.969
lowerback 12.7255 1.85354 2.60234
upperback 2.99313 2.48838 -0.398625
thorax -3.84846 1.08698 -2.26515
lowerneck -14.8844 7.02218 -11.2365
upperneck 45.1419 7.58734 3.99394
head 19.1051 -0.230143 4.7761
rclavicle 2.32578e-014 0
rhumerus -30.4592 -12.0517 -73.3948
rradius 40.724
rwrist -1.93171
rhand -17.8739 8.705
rfingers 7.12502
rthumb 8.39201 -21.1083
lclavicle 2.32578e-014 0
lhumerus -40.3198 15.999 73.9066
lradius 36.6924
lwrist -3.60871
lhand -22.0083 19.9287
lfingers 7.12502
lthumb 4.40072 49.8629
rfemur -6.96531 1.59338 11.0193
rtibia 27.8215
rfoot -15.9051 -1.76275
rtoes -7.11038
lfemur -5.65153 -5.24199 -11.501
ltibia 29.7596
lfoot -7.83313 -0.0616425
ltoes -10.9062
